<?xml version="1.0" standalone="no"?>
<!DOCTYPE svg PUBLIC "-//W3C//DTD SVG 20010904//EN"
 "http://www.w3.org/TR/2001/REC-SVG-20010904/DTD/svg10.dtd">
<svg version="1.0" xmlns="http://www.w3.org/2000/svg"
 width="260.000000pt" height="260.000000pt" viewBox="0 0 260.000000 260.000000"
 preserveAspectRatio="xMidYMid meet">
<metadata>
Created by potrace 1.11, written by Peter Selinger 2001-2013
</metadata>
<g transform="translate(0.000000,260.000000) scale(0.100000,-0.100000)"
fill="#000000" stroke="none">
<path d="M475 2363 c-157 -46 -249 -205 -209 -360 78 -299 493 -306 579 -9 65
223 -146 434 -370 369z"/>
<path d="M456 1585 c-113 -43 -195 -154 -198 -267 -3 -132 57 -234 170 -290
67 -33 198 -33 259 0 66 34 110 78 139 138 71 144 15 321 -126 398 -64 35
-181 45 -244 21z"/>
<path d="M1985 1588 c-69 -26 -144 -87 -172 -143 -81 -155 -20 -340 137 -418
36 -18 62 -22 130 -22 75 1 91 4 139 30 270 148 172 558 -135 563 -38 0 -82
-4 -99 -10z"/>
<path d="M496 823 c-2 -3 -10 -6 -18 -7 -58 -11 -136 -68 -173 -126 -110 -175
-22 -402 177 -454 58 -15 118 -14 161 3 15 6 27 8 27 5 0 -13 93 61 124 99 87
107 80 287 -15 386 -36 38 -94 75 -134 86 -33 9 -142 15 -149 8z"/>
</g>
</svg>
